<svg width="45" height="60" viewBox="0 0 45 60" fill="none" xmlns="http://www.w3.org/2000/svg">
<path opacity="0.2" d="M38.3203 22.5H6.67969C5.70887 22.5 4.92188 23.5493 4.92188 24.8438V50.1562C4.92188 51.4507 5.70887 52.5 6.67969 52.5H38.3203C39.2911 52.5 40.0781 51.4507 40.0781 50.1562V24.8438C40.0781 23.5493 39.2911 22.5 38.3203 22.5Z" fill="black"/>
<path d="M4.92188 41.7188C4.92188 43.0172 5.70586 44.0625 6.67969 44.0625H38.3203C39.2941 44.0625 40.0781 43.0172 40.0781 41.7188V16.4062C40.0781 15.1078 39.2941 14.0625 38.3203 14.0625H20.3906V11.7188C20.3906 10.4203 19.6066 9.375 18.6328 9.375H6.67969C5.70586 9.375 4.92188 10.4203 4.92188 11.7188" fill="#B58F1B"/>
<path opacity="0.2" d="M38.3203 20.625H6.67969C5.70887 20.625 4.92188 21.6743 4.92188 22.9688V48.2812C4.92188 49.5757 5.70887 50.625 6.67969 50.625H38.3203C39.2911 50.625 40.0781 49.5757 40.0781 48.2812V22.9688C40.0781 21.6743 39.2911 20.625 38.3203 20.625Z" fill="black"/>
<path d="M36.2109 16.875H8.78906C7.81825 16.875 7.03125 17.9243 7.03125 19.2188V33.2812C7.03125 34.5757 7.81825 35.625 8.78906 35.625H36.2109C37.1818 35.625 37.9688 34.5757 37.9688 33.2812V19.2188C37.9688 17.9243 37.1818 16.875 36.2109 16.875Z" fill="#E4E4E4"/>
<path d="M38.3203 21.5625H6.67969C5.70887 21.5625 4.92188 22.6118 4.92188 23.9062V49.2188C4.92188 50.5132 5.70887 51.5625 6.67969 51.5625H38.3203C39.2911 51.5625 40.0781 50.5132 40.0781 49.2188V23.9062C40.0781 22.6118 39.2911 21.5625 38.3203 21.5625Z" fill="#E2B322"/>
<path opacity="0.1" d="M6.67969 9.375C5.70586 9.375 4.92188 10.4203 4.92188 11.7188V12.6562C4.92188 11.3578 5.70586 10.3125 6.67969 10.3125H18.6328C19.6066 10.3125 20.3906 11.3578 20.3906 12.6562V11.7188C20.3906 10.4203 19.6066 9.375 18.6328 9.375H6.67969ZM20.3906 14.0625V15H38.3203C39.2977 15 40.0781 16.0453 40.0781 17.3438V16.4062C40.0781 15.1078 39.2977 14.0625 38.3203 14.0625H20.3906Z" fill="white"/>
</svg>
